<mxfile host="app.diagrams.net" modified="2021-04-21T02:51:41.203Z" agent="5.0 (Windows NT 10.0; WOW64) AppleWebKit/537.36 (KHTML, like Gecko) Chrome/88.0.4324.150 Safari/537.36 OPR/74.0.3911.154" etag="NEIbY248PiXTg98Os6Xb" version="14.6.3" type="github">
  <diagram id="eUwX6jSAKP8vngTL92fX" name="第 1 页">
    <mxGraphModel dx="1038" dy="548" grid="1" gridSize="10" guides="1" tooltips="1" connect="1" arrows="1" fold="1" page="1" pageScale="1" pageWidth="827" pageHeight="1169" math="0" shadow="0">
      <root>
        <mxCell id="0" />
        <mxCell id="1" parent="0" />
        <mxCell id="JIUhwhdogiVepjK2LK-t-1" value="集中判图" style="rounded=0;whiteSpace=wrap;html=1;fillColor=#dae8fc;strokeColor=#6c8ebf;" vertex="1" parent="1">
          <mxGeometry width="830" height="80" as="geometry" />
        </mxCell>
        <mxCell id="JIUhwhdogiVepjK2LK-t-2" value="" style="edgeStyle=orthogonalEdgeStyle;rounded=0;orthogonalLoop=1;jettySize=auto;html=1;" edge="1" parent="1" source="JIUhwhdogiVepjK2LK-t-3" target="JIUhwhdogiVepjK2LK-t-5">
          <mxGeometry relative="1" as="geometry" />
        </mxCell>
        <mxCell id="JIUhwhdogiVepjK2LK-t-3" value="网点" style="whiteSpace=wrap;html=1;aspect=fixed;fillColor=#d5e8d4;strokeColor=#82b366;" vertex="1" parent="1">
          <mxGeometry x="380" y="80" width="80" height="80" as="geometry" />
        </mxCell>
        <mxCell id="JIUhwhdogiVepjK2LK-t-4" value="" style="edgeStyle=orthogonalEdgeStyle;rounded=0;orthogonalLoop=1;jettySize=auto;html=1;" edge="1" parent="1" source="JIUhwhdogiVepjK2LK-t-5" target="JIUhwhdogiVepjK2LK-t-6">
          <mxGeometry relative="1" as="geometry" />
        </mxCell>
        <mxCell id="JIUhwhdogiVepjK2LK-t-5" value="终端(虚拟的)" style="whiteSpace=wrap;html=1;aspect=fixed;fillColor=#d5e8d4;strokeColor=#82b366;" vertex="1" parent="1">
          <mxGeometry x="380" y="210" width="80" height="80" as="geometry" />
        </mxCell>
        <mxCell id="JIUhwhdogiVepjK2LK-t-6" value="魔盒设备" style="whiteSpace=wrap;html=1;aspect=fixed;fillColor=#d5e8d4;strokeColor=#82b366;" vertex="1" parent="1">
          <mxGeometry x="380" y="330" width="80" height="80" as="geometry" />
        </mxCell>
        <mxCell id="JIUhwhdogiVepjK2LK-t-7" value="一个网点下可以有多个终端，一个终端下只能有一个魔盒设备" style="text;html=1;strokeColor=none;fillColor=none;align=center;verticalAlign=middle;whiteSpace=wrap;rounded=0;" vertex="1" parent="1">
          <mxGeometry x="490" y="110" width="230" height="30" as="geometry" />
        </mxCell>
        <mxCell id="JIUhwhdogiVepjK2LK-t-8" value="业务逻辑" style="text;html=1;strokeColor=none;fillColor=none;align=center;verticalAlign=middle;whiteSpace=wrap;rounded=0;" vertex="1" parent="1">
          <mxGeometry x="40" y="440" width="120" height="20" as="geometry" />
        </mxCell>
        <mxCell id="JIUhwhdogiVepjK2LK-t-9" value="1.判图员配置关联网点下的终端&lt;br&gt;&lt;br style=&quot;font-size: 13px&quot;&gt;2.每张安检图片从qt截图发送到中心，都会记录发送时间和安检图片的最大判图时间(闲时、忙时)&lt;br&gt;&lt;br style=&quot;font-size: 13px&quot;&gt;3.判图员登录判图系统后，查询他所关联的终端的安检图片，按安检图片的先后顺序，那个终端下的魔盒有安检图片，分配安检图片。并显示当前安检图片的剩余判图时长。&lt;br style=&quot;font-size: 13px&quot;&gt;&lt;br&gt;4.如果在判图时长内判图员没有做抉择，系统会根据当前安检图片是否有违禁品，来判断是自动开包还是自动放行&lt;br&gt;&lt;br&gt;5.判图规则&lt;br&gt;&amp;nbsp; 规则1：发现当前安检机(魔盒)积压超过3个，自动停止安检机" style="shape=note;whiteSpace=wrap;html=1;backgroundOutline=1;darkOpacity=0.05;align=left;verticalAlign=top;fontSize=13;fillColor=#d5e8d4;strokeColor=#82b366;" vertex="1" parent="1">
          <mxGeometry x="40" y="459" width="580" height="190" as="geometry" />
        </mxCell>
      </root>
    </mxGraphModel>
  </diagram>
</mxfile>
